 <svg  version="1.0" xmlns="http://www.w3.org/2000/svg"  width="744.000000pt" height="636.000000pt" viewBox="0 0 744.000000 636.000000"  preserveAspectRatio="xMidYMid meet">  <g transform="translate(0.000000,636.000000) scale(0.100000,-0.100000)" fill="#ffe380" stroke="none"> <path d="M1466 6074 c-23 -24 -26 -34 -26 -98 0 -76 17 -147 46 -193 20 -30 84 -93 97 -93 4 0 7 -35 7 -78 0 -79 14 -126 45 -152 24 -20 18 -35 -22 -62 -48 -32 -79 -62 -119 -113 -28 -35 -42 -59 -83 -135 -27 -51 -61 -143 -71 -195 -5 -22 -14 -58 -21 -80 -11 -32 -14 -162 -14 -620 0 -564 1 -581 20 -615 30 -52 65 -89 110 -118 34 -22 51 -26 116 -26 71 -1 80 2 127 34 57 38 101 101 119 169 9 32 13 126 12 316 -1 149 -1 278 0 287 0 10 17 36 37 58 l36 40 78 0 c84 0 163 20 220 56 40 24 90 69 90 80 0 4 6 15 13 23 8 9 22 45 31 80 20 72 12 108 -30 136 -31 20 -46 19 -78 -6 -20 -15 -26 -29 -26 -57 0 -52 -28 -102 -75 -134 -35 -24 -50 -27 -119 -28 -108 0 -176 -23 -235 -80 -89 -86 -86 -74 -83 -410 3 -327 -2 -356 -59 -405 -40 -33 -79 -32 -114 2 -55 55 -55 54 -55 555 1 619 16 722 134 935 25 45 93 115 141 147 105 68 85 66 665 66 l525 0 52 -33 c99 -62 131 -138 158 -377 13 -119 23 -596 12 -606 -3 -3 -198 -5 -435 -4 -375 1 -431 -1 -442 -15 -7 -8 -20 -15 -29 -15 -9 0 -22 -5 -28 -11 -15 -15 -120 -38 -178 -39 -61 0 -78 -10 -73 -41 l3 -24 543 -3 c342 -1 585 2 655 9 223 22 257 22 257 4 0 -14 -7 -15 -44 -10 -38 6 -45 4 -50 -13 -4 -13 -19 -22 -41 -26 -83 -16 -224 -107 -329 -213 -88 -89 -159 -183 -198 -264 -48 -100 -78 -171 -78 -186 0 -9 -7 -39 -14 -67 -76 -265 -15 -617 148 -856 126 -185 315 -339 470 -385 30 -9 42 -18 44 -35 3 -21 1 -22 -35 -15 -21 4 -524 9 -1118 11 l-1080 4 -3 1019 -2 1020 42 3 43 3 2 73 2 72 -98 0 c-94 0 -99 -1 -115 -25 -15 -23 -16 -126 -16 -1147 l0 -1122 22 -23 22 -23 1580 0 c870 0 1586 0 1591 0 6 0 10 -120 10 -338 1 -289 3 -346 18 -402 54 -197 66 -227 115 -271 29 -27 44 -69 24 -69 -13 0 -56 -41 -75 -72 -13 -20 -17 -50 -17 -113 0 -47 -3 -85 -7 -85 -14 0 -79 -65 -96 -95 -36 -65 -47 -109 -47 -184 1 -79 8 -99 48 -120 25 -13 58 -7 85 17 14 12 17 32 17 102 0 86 0 87 35 123 20 21 49 39 68 42 17 3 348 5 733 3 l702 -3 26 -26 c41 -41 54 -84 48 -155 -4 -59 -3 -64 23 -88 15 -14 34 -26 41 -26 28 0 63 24 73 49 21 54 4 197 -32 264 -15 28 -85 97 -99 97 -5 0 -8 36 -8 80 0 81 -7 104 -45 148 -23 27 -14 49 27 69 29 15 132 123 152 162 66 123 116 246 116 286 0 11 8 40 17 65 16 41 18 102 18 625 l0 580 -25 40 c-29 47 -73 93 -115 120 -41 27 -183 29 -212 2 -11 -9 -22 -17 -26 -17 -9 0 -70 -64 -85 -90 -38 -63 -42 -109 -41 -401 1 -194 -2 -293 -10 -307 -6 -12 -26 -32 -44 -46 -27 -21 -45 -25 -122 -29 -177 -8 -276 -75 -327 -222 -10 -27 -18 -60 -18 -72 0 -33 26 -69 60 -83 25 -10 32 -9 59 11 27 20 31 29 31 69 0 38 6 53 35 87 44 51 69 61 180 66 139 6 223 55 277 161 20 38 21 57 22 352 l1 311 28 36 c15 20 42 44 58 53 28 14 32 14 63 -6 20 -12 43 -39 56 -66 21 -46 21 -50 16 -537 -4 -489 -9 -571 -38 -678 -18 -61 -67 -191 -77 -199 -3 -3 -19 -25 -36 -49 -35 -51 -114 -131 -130 -131 -6 0 -16 -5 -22 -11 -7 -7 -36 -20 -65 -30 -48 -18 -91 -19 -571 -19 l-518 0 -57 36 c-31 20 -64 46 -72 58 -27 39 -50 90 -50 112 0 13 -5 35 -12 51 -20 50 -29 153 -36 458 -4 165 -6 302 -5 304 1 1 193 2 427 2 l424 -2 59 30 c69 35 134 51 206 51 63 0 80 10 75 41 l-3 24 -568 3 c-515 2 -678 -3 -759 -23 -15 -4 -35 -5 -43 -1 -31 11 10 49 78 71 129 44 295 176 406 325 69 94 171 295 171 339 0 10 6 34 14 52 27 67 36 266 17 414 -34 276 -193 545 -426 719 -73 55 -163 102 -215 113 -29 5 -50 28 -50 53 0 8 12 10 38 6 135 -22 304 -26 1212 -25 l995 1 3 -1021 2 -1020 -42 -3 -43 -3 -3 -72 -3 -73 95 0 c153 0 136 -145 136 1170 0 1116 0 1117 -21 1144 l-21 26 -1576 0 c-867 0 -1584 0 -1592 0 -13 0 -15 44 -15 332 0 351 0 342 -52 533 -20 70 -53 128 -87 150 -39 26 -38 49 3 81 56 42 75 89 69 173 -5 70 -5 70 26 92 76 52 126 161 126 274 0 58 -4 75 -20 93 -29 30 -62 36 -99 18 l-31 -17 0 -85 c0 -93 -11 -124 -58 -159 -26 -20 -43 -20 -747 -20 l-720 0 -32 24 c-47 35 -66 82 -58 141 9 67 -1 105 -31 119 -38 17 -59 13 -88 -15z m1582 -414 c8 0 12 -16 12 -47 0 -53 -4 -62 -40 -86 -22 -16 -77 -17 -624 -17 -589 0 -599 0 -632 21 -32 19 -34 24 -34 74 0 29 5 55 10 57 7 2 1077 1 1308 -2z m992 -1432 c0 -7 -5 -20 -10 -28 -7 -12 -12 -12 -21 -3 -9 9 -9 16 1 28 15 18 30 20 30 3z m-204 -113 c117 -20 225 -52 284 -87 8 -4 27 -13 43 -19 15 -6 27 -14 27 -17 0 -4 18 -16 40 -26 50 -24 218 -185 256 -246 46 -73 51 -82 84 -149 132 -268 114 -628 -43 -886 -64 -105 -190 -239 -282 -300 -292 -193 -631 -220 -944 -73 -188 88 -363 264 -453 458 -41 87 -64 166 -84 286 -17 106 -17 115 0 225 10 63 27 139 37 169 36 107 46 131 57 142 7 7 12 16 12 21 0 5 14 29 30 54 17 24 30 48 30 53 0 5 44 54 98 108 86 88 174 156 236 183 12 5 28 13 36 18 65 37 139 60 260 82 122 22 167 22 276 4z m-366 -1985 c0 -5 -11 -10 -25 -10 -14 0 -25 5 -25 10 0 6 11 10 25 10 14 0 25 -4 25 -10z m2190 -1322 c27 -19 30 -28 30 -75 l0 -53 -662 2 -663 3 -3 47 c-3 40 1 50 25 72 l28 26 608 0 608 0 29 -22z"/> <path d="M3683 3895 c-31 -13 -33 -17 -33 -68 0 -62 -10 -75 -64 -84 -20 -3 -41 -12 -47 -19 -6 -8 -17 -14 -24 -14 -19 0 -90 -84 -115 -134 -29 -60 -28 -195 1 -261 22 -50 93 -129 131 -145 13 -6 30 -14 38 -18 44 -25 83 -42 94 -42 34 0 175 -72 214 -109 39 -38 42 -43 42 -95 0 -85 -42 -140 -131 -171 -53 -19 -74 -19 -140 2 -88 27 -149 100 -149 178 0 48 -13 71 -50 83 -40 14 -88 -2 -101 -35 -13 -36 1 -131 28 -190 25 -53 105 -143 128 -143 7 0 18 -7 25 -15 7 -8 25 -15 41 -15 15 0 39 -4 53 -10 23 -8 26 -15 26 -58 0 -74 42 -107 113 -89 33 9 50 46 41 92 -7 38 14 65 51 65 61 0 149 75 195 165 30 58 29 208 -2 266 -49 94 -134 156 -293 212 -114 41 -142 55 -185 95 -38 37 -40 42 -40 100 0 53 4 66 33 103 53 69 145 95 223 63 75 -31 124 -98 124 -170 0 -45 18 -81 44 -88 74 -20 116 12 116 90 0 51 -28 146 -49 167 -6 6 -11 16 -11 22 0 14 -67 78 -100 96 -14 8 -43 18 -65 24 l-40 10 -3 56 c-4 82 -51 115 -119 84z"/> <path d="M1953 4036 c-7 -11 -7 -126 0 -132 9 -9 760 -5 769 4 5 5 8 37 6 71 l-3 63 -383 1 c-218 1 -386 -2 -389 -7z"/> <path d="M4622 4035 c-7 -10 -4 -91 4 -118 5 -17 33 -18 517 -16 l511 1 21 -24 c75 -91 101 -122 110 -132 6 -6 49 -56 95 -111 46 -55 103 -120 127 -145 l43 -45 0 -247 0 -247 38 -27 c22 -16 46 -41 55 -56 9 -16 25 -28 37 -28 20 0 20 4 20 323 l0 322 -56 65 c-31 36 -77 89 -103 119 -25 30 -50 59 -56 65 -5 6 -34 41 -64 76 -30 36 -62 72 -70 81 -16 16 -73 83 -108 127 l-18 23 -548 2 c-342 1 -551 -2 -555 -8z"/> <path d="M6071 4030 c-35 -30 -33 -85 5 -115 37 -31 50 -31 91 1 26 20 33 32 33 59 0 63 -81 98 -129 55z"/> <path d="M1226 3503 c-3 -3 -6 -151 -6 -327 l0 -321 80 -93 c43 -51 85 -98 92 -106 7 -7 31 -35 53 -62 49 -59 112 -132 128 -149 12 -12 72 -83 104 -123 l18 -22 515 -1 c283 0 521 0 528 1 16 0 17 126 1 136 -6 3 -228 6 -493 5 l-482 -2 -34 43 c-47 60 -266 313 -317 368 l-43 45 0 253 0 252 -23 9 c-12 5 -38 26 -57 48 -40 45 -54 55 -64 46z"/> <path d="M1686 3225 c-43 -40 -32 -102 23 -124 33 -14 62 -4 93 33 25 30 22 49 -11 85 -35 38 -69 40 -105 6z"/> <path d="M1995 3238 c-27 -15 -44 -39 -45 -60 0 -32 22 -67 52 -79 84 -34 144 102 61 140 -30 14 -43 13 -68 -1z"/> <path d="M2285 3238 c-54 -31 -60 -84 -14 -122 35 -30 35 -30 78 -15 59 21 66 106 11 134 -34 18 -48 18 -75 3z"/> <path d="M5058 3235 c-53 -29 -49 -107 7 -131 38 -15 59 -11 93 19 32 29 29 70 -9 101 -35 29 -52 31 -91 11z"/> <path d="M5353 3238 c-55 -27 -50 -114 8 -138 89 -37 151 99 63 139 -30 13 -42 13 -71 -1z"/> <path d="M5629 3219 c-33 -35 -35 -50 -14 -83 52 -79 164 -32 141 59 -6 25 -51 55 -81 55 -10 0 -30 -14 -46 -31z"/> <path d="M1251 2424 c-41 -34 -43 -83 -5 -113 55 -44 124 -10 124 60 0 27 -7 40 -30 57 -38 28 -52 28 -89 -4z"/> <path d="M4649 2433 c-6 -6 -9 -39 -7 -73 l3 -62 410 0 410 1 3 70 c2 39 -1 71 -5 71 -4 0 -187 2 -406 3 -293 1 -401 -1 -408 -10z"/> </g> </svg> 