 <svg version="1.0" xmlns="http://www.w3.org/2000/svg" width="178.000000pt" height="96.000000pt" viewBox="0 0 178.000000 96.000000" preserveAspectRatio="xMidYMid meet">  <g transform="translate(0.000000,96.000000) scale(0.100000,-0.100000)" fill="#fdb89e" stroke="#fdb89e"> <path d="M705 703 c-123 -26 -212 -78 -417 -246 -37 -31 -81 -58 -98 -62 -21 -5 -30 -13 -30 -26 0 -25 17 -24 73 5 l47 23 0 -63 0 -63 -62 -14 c-62 -15 -59 -15 165 -16 125 -1 227 1 227 3 0 2 -7 20 -15 39 -25 60 -20 111 16 151 53 61 135 61 214 0 l46 -35 32 27 c68 58 142 69 198 31 59 -39 72 -93 44 -172 -8 -22 -15 -41 -15 -42 0 -2 102 -3 228 -2 159 1 215 4 187 10 -93 21 -85 13 -85 83 l0 63 47 -23 c57 -29 73 -30 66 -4 -3 10 -19 24 -37 30 -17 5 -83 53 -146 105 -131 109 -256 177 -365 200 -88 18 -229 18 -320 -2z m85 -77 c0 -52 -1 -53 -32 -59 -18 -3 -41 -9 -51 -12 -16 -7 -18 -2 -15 51 3 63 5 64 86 73 8 1 12 -16 12 -53z m130 2 l0 -53 -50 0 -50 0 0 53 0 52 50 0 50 0 0 -52z m123 35 c4 -2 7 -29 7 -59 0 -54 0 -54 -27 -48 -80 20 -75 16 -77 72 l-1 52 45 -6 c25 -4 48 -8 53 -11z m-378 -66 l0 -53 -52 -26 -53 -26 0 59 0 60 43 19 c23 11 47 20 52 20 6 0 10 -24 10 -53z m473 33 l42 -19 0 -60 0 -59 -55 26 -55 27 0 53 c0 59 4 61 68 32z m-599 -92 l0 -63 -55 -43 -54 -42 0 67 0 68 53 37 c28 20 53 37 55 38 1 0 2 -28 1 -62z m771 -81 l0 -67 -54 42 -55 43 0 63 -1 63 55 -38 55 -38 0 -68z m-310 75 c23 -9 24 -10 5 -16 -11 -4 -46 -20 -77 -36 l-57 -28 -65 32 c-66 33 -73 49 -26 59 38 8 192 0 220 -11z m-590 -96 l0 -64 -49 -41 c-27 -23 -51 -41 -54 -41 -3 0 -5 28 -5 63 1 61 1 63 47 104 25 23 49 42 54 43 4 0 7 -29 7 -64z m977 25 c44 -39 45 -41 46 -105 1 -37 0 -66 -3 -66 -3 0 -26 18 -52 41 l-48 41 0 64 c0 35 3 64 6 64 3 0 26 -18 51 -39z m-182 -27 c6 -7 28 -25 50 -40 23 -16 58 -48 79 -71 l38 -43 -33 -1 c-142 -6 -149 -3 -149 65 0 57 -21 122 -35 109 -4 -5 -5 -2 -1 5 8 13 25 5 51 -24z m-621 18 c-23 -15 -34 -52 -34 -111 0 -51 -3 -61 -17 -62 -31 -3 -158 3 -162 7 -12 11 182 172 209 173 10 0 11 -2 4 -7z"></path> <path d="M680 240 c-72 -7 -51 -20 43 -29 78 -7 97 -24 32 -29 -56 -5 -66 -19 -19 -27 82 -14 93 -23 48 -43 -30 -14 -23 -32 12 -32 36 0 67 -19 60 -36 -4 -11 1 -13 22 -8 15 4 35 11 45 16 19 10 23 28 6 28 -28 0 2 26 41 35 53 13 60 28 20 45 -16 7 -30 16 -30 20 0 4 30 15 67 24 80 19 103 36 53 36 -284 4 -353 4 -400 0z m280 -41 c-9 -17 -8 -25 6 -41 10 -11 14 -18 9 -16 -17 5 -76 -36 -70 -50 2 -7 -2 -15 -9 -18 -24 -9 -56 15 -72 56 -9 22 -21 37 -26 34 -6 -4 -8 -1 -4 7 3 8 9 22 12 32 5 14 19 17 86 17 77 0 78 -1 68 -21z"></path> </g> </svg> 